mtllib Cubeult.mtl
g Cubeult
#Vertices 54
#Indices 144
#Section 0 Offset 0 NumIndices 144 MaterialIndex 0 BasicShapeMaterial
v 0.500000 -0.500000 -0.500000
v 0.000000 -0.500000 -0.500000
v 0.500000 -0.500000 0.000000
v 0.000000 -0.500000 0.000000
v -0.500000 -0.500000 -0.500000
v 0.500000 -0.500000 0.500000
v -0.500000 -0.500000 0.000000
v 0.000000 -0.500000 0.500000
v -0.500000 -0.500000 0.500000
v 0.500000 0.500000 -0.000000
v 0.000000 0.500000 -0.500000
v 0.500000 0.500000 -0.500000
v 0.000000 0.500000 -0.000000
v 0.500000 0.500000 0.500000
v -0.500000 0.500000 -0.500000
v 0.000000 0.500000 0.500000
v -0.500000 0.500000 -0.000000
v -0.500000 0.500000 0.500000
v 0.500000 -0.000000 -0.500000
v 0.000000 -0.500000 -0.500000
v 0.500000 -0.500000 -0.500000
v 0.000000 -0.000000 -0.500000
v 0.500000 0.500000 -0.500000
v -0.500000 -0.500000 -0.500000
v 0.000000 0.500000 -0.500000
v -0.500000 -0.000000 -0.500000
v -0.500000 0.500000 -0.500000
v 0.500000 0.000000 0.500000
v 0.500000 -0.500000 0.000000
v 0.500000 -0.500000 0.500000
v 0.500000 -0.000000 -0.000000
v 0.500000 0.500000 0.500000
v 0.500000 -0.500000 -0.500000
v 0.500000 0.500000 -0.000000
v 0.500000 -0.000000 -0.500000
v 0.500000 0.500000 -0.500000
v -0.500000 0.000000 0.500000
v 0.000000 -0.500000 0.500000
v -0.500000 -0.500000 0.500000
v 0.000000 0.000000 0.500000
v -0.500000 0.500000 0.500000
v 0.500000 -0.500000 0.500000
v 0.000000 0.500000 0.500000
v 0.500000 0.000000 0.500000
v 0.500000 0.500000 0.500000
v -0.500000 -0.000000 -0.500000
v -0.500000 -0.500000 0.000000
v -0.500000 -0.500000 -0.500000
v -0.500000 -0.000000 -0.000000
v -0.500000 0.500000 -0.500000
v -0.500000 -0.500000 0.500000
v -0.500000 0.500000 -0.000000
v -0.500000 0.000000 0.500000
v -0.500000 0.500000 0.500000
vt 0.000000 0.000000
vt 0.500000 0.000000
vt 0.000000 0.500000
vt 0.500000 0.500000
vt 1.000000 0.000000
vt 0.000000 1.000000
vt 1.000000 0.500000
vt 0.500000 1.000000
vt 1.000000 1.000000
vt 1.000000 0.500000
vt 0.500000 0.000000
vt 1.000000 0.000000
vt 0.500000 0.500000
vt 1.000000 1.000000
vt 0.000000 0.000000
vt 0.500000 1.000000
vt 0.000000 0.500000
vt 0.000000 1.000000
vt 1.000000 0.500000
vt 0.500000 0.000000
vt 1.000000 0.000000
vt 0.500000 0.500000
vt 1.000000 1.000000
vt 0.000000 0.000000
vt 0.500000 1.000000
vt 0.000000 0.500000
vt 0.000000 1.000000
vt 1.000000 0.500000
vt 0.500000 0.000000
vt 1.000000 0.000000
vt 0.500000 0.500000
vt 1.000000 1.000000
vt 0.000000 0.000000
vt 0.500000 1.000000
vt 0.000000 0.500000
vt 0.000000 1.000000
vt 1.000000 0.500000
vt 0.500000 0.000000
vt 1.000000 0.000000
vt 0.500000 0.500000
vt 1.000000 1.000000
vt 0.000000 0.000000
vt 0.500000 1.000000
vt 0.000000 0.500000
vt 0.000000 1.000000
vt 1.000000 0.500000
vt 0.500000 0.000000
vt 1.000000 0.000000
vt 0.500000 0.500000
vt 1.000000 1.000000
vt 0.000000 0.000000
vt 0.500000 1.000000
vt 0.000000 0.500000
vt 0.000000 1.000000
vt1 0.359619 0.995209
vt1 0.359619 0.854858
vt1 0.499756 0.995209
vt1 0.499756 0.854858
vt1 0.359619 0.714600
vt1 0.640137 0.995209
vt1 0.499756 0.714600
vt1 0.640137 0.854858
vt1 0.640137 0.714600
vt1 0.499756 0.004883
vt1 0.359619 0.145508
vt1 0.359619 0.004883
vt1 0.499756 0.145508
vt1 0.640137 0.004883
vt1 0.359619 0.285645
vt1 0.640137 0.145508
vt1 0.499756 0.285645
vt1 0.640137 0.285645
vt1 0.499756 0.359863
vt1 0.359619 0.500244
vt1 0.359619 0.359863
vt1 0.499756 0.500244
vt1 0.640137 0.359863
vt1 0.359619 0.640381
vt1 0.640137 0.500244
vt1 0.499756 0.640381
vt1 0.640137 0.640381
vt1 0.145142 0.359863
vt1 0.004791 0.500244
vt1 0.004791 0.359863
vt1 0.145142 0.500244
vt1 0.285400 0.359863
vt1 0.004791 0.640381
vt1 0.285400 0.500244
vt1 0.145142 0.640381
vt1 0.285400 0.640381
vt1 0.285400 0.145508
vt1 0.145142 0.004883
vt1 0.285400 0.004883
vt1 0.145142 0.145508
vt1 0.285400 0.285645
vt1 0.004791 0.004883
vt1 0.145142 0.285645
vt1 0.004791 0.145508
vt1 0.004791 0.285645
vt1 0.145142 0.714600
vt1 0.004791 0.854858
vt1 0.004791 0.714600
vt1 0.145142 0.854858
vt1 0.285400 0.714600
vt1 0.004791 0.995209
vt1 0.285400 0.854858
vt1 0.145142 0.995209
vt1 0.285400 0.995209
vn 0.000000 -1.000000 0.000000
vn 0.000000 -1.000000 0.000000
vn 0.000000 -1.000000 0.000000
vn 0.000000 -1.000000 0.000000
vn 0.000000 -1.000000 0.000000
vn 0.000000 -1.000000 0.000000
vn 0.000000 -1.000000 0.000000
vn 0.000000 -1.000000 0.000000
vn 0.000000 -1.000000 0.000000
vn 0.000000 1.000000 -0.000000
vn 0.000000 1.000000 -0.000000
vn 0.000000 1.000000 -0.000000
vn 0.000000 1.000000 -0.000000
vn 0.000000 1.000000 -0.000000
vn 0.000000 1.000000 -0.000000
vn 0.000000 1.000000 -0.000000
vn 0.000000 1.000000 -0.000000
vn 0.000000 1.000000 -0.000000
vn 0.000000 -0.000000 -1.000000
vn 0.000000 -0.000000 -1.000000
vn 0.000000 -0.000000 -1.000000
vn 0.000000 -0.000000 -1.000000
vn 0.000000 -0.000000 -1.000000
vn 0.000000 -0.000000 -1.000000
vn 0.000000 -0.000000 -1.000000
vn 0.000000 -0.000000 -1.000000
vn 0.000000 -0.000000 -1.000000
vn 1.000000 0.000000 0.000000
vn 1.000000 0.000000 0.000000
vn 1.000000 0.000000 0.000000
vn 1.000000 0.000000 0.000000
vn 1.000000 0.000000 0.000000
vn 1.000000 0.000000 0.000000
vn 1.000000 0.000000 0.000000
vn 1.000000 0.000000 0.000000
vn 1.000000 0.000000 0.000000
vn 0.000000 0.000000 1.000000
vn 0.000000 0.000000 1.000000
vn 0.000000 0.000000 1.000000
vn 0.000000 0.000000 1.000000
vn 0.000000 0.000000 1.000000
vn 0.000000 0.000000 1.000000
vn 0.000000 0.000000 1.000000
vn 0.000000 0.000000 1.000000
vn 0.000000 0.000000 1.000000
vn -1.000000 0.000000 0.000000
vn -1.000000 0.000000 0.000000
vn -1.000000 0.000000 0.000000
vn -1.000000 0.000000 0.000000
vn -1.000000 0.000000 0.000000
vn -1.000000 0.000000 0.000000
vn -1.000000 0.000000 0.000000
vn -1.000000 0.000000 0.000000
vn -1.000000 0.000000 0.000000
tan 0.000000 -0.000000 -1.000000 1.000000
tan 0.000000 -0.000000 -1.000000 1.000000
tan 0.000000 -0.000000 -1.000000 1.000000
tan 0.000000 -0.000000 -1.000000 1.000000
tan 0.000000 -0.000000 -1.000000 1.000000
tan 0.000000 -0.000000 -1.000000 1.000000
tan 0.000000 -0.000000 -1.000000 1.000000
tan 0.000000 -0.000000 -1.000000 1.000000
tan 0.000000 -0.000000 -1.000000 1.000000
tan 0.000000 -0.000000 -1.000000 1.000000
tan 0.000000 -0.000000 -1.000000 1.000000
tan 0.000000 -0.000000 -1.000000 1.000000
tan 0.000000 -0.000000 -1.000000 1.000000
tan 0.000000 -0.000000 -1.000000 1.000000
tan 0.000000 -0.000000 -1.000000 1.000000
tan 0.000000 -0.000000 -1.000000 1.000000
tan 0.000000 -0.000000 -1.000000 1.000000
tan 0.000000 -0.000000 -1.000000 1.000000
tan 0.000000 -1.000000 0.000000 1.000000
tan 0.000000 -1.000000 0.000000 1.000000
tan 0.000000 -1.000000 0.000000 1.000000
tan 0.000000 -1.000000 0.000000 1.000000
tan 0.000000 -1.000000 0.000000 1.000000
tan 0.000000 -1.000000 0.000000 1.000000
tan 0.000000 -1.000000 0.000000 1.000000
tan 0.000000 -1.000000 0.000000 1.000000
tan 0.000000 -1.000000 0.000000 1.000000
tan 0.000000 -1.000000 0.000000 1.000000
tan 0.000000 -1.000000 0.000000 1.000000
tan 0.000000 -1.000000 0.000000 1.000000
tan 0.000000 -1.000000 0.000000 1.000000
tan 0.000000 -1.000000 0.000000 1.000000
tan 0.000000 -1.000000 0.000000 1.000000
tan 0.000000 -1.000000 0.000000 1.000000
tan 0.000000 -1.000000 0.000000 1.000000
tan 0.000000 -1.000000 0.000000 1.000000
tan 0.000000 -1.000000 0.000000 1.000000
tan 0.000000 -1.000000 0.000000 1.000000
tan 0.000000 -1.000000 0.000000 1.000000
tan 0.000000 -1.000000 0.000000 1.000000
tan 0.000000 -1.000000 0.000000 1.000000
tan 0.000000 -1.000000 0.000000 1.000000
tan 0.000000 -1.000000 0.000000 1.000000
tan 0.000000 -1.000000 0.000000 1.000000
tan 0.000000 -1.000000 0.000000 1.000000
tan 0.000000 -1.000000 0.000000 1.000000
tan 0.000000 -1.000000 0.000000 1.000000
tan 0.000000 -1.000000 0.000000 1.000000
tan 0.000000 -1.000000 0.000000 1.000000
tan 0.000000 -1.000000 0.000000 1.000000
tan 0.000000 -1.000000 0.000000 1.000000
tan 0.000000 -1.000000 0.000000 1.000000
tan 0.000000 -1.000000 0.000000 1.000000
tan 0.000000 -1.000000 0.000000 1.000000
f 3/3/3 2/2/2 1/1/1
f 3/3/3 4/4/4 2/2/2
f 4/4/4 5/5/5 2/2/2
f 6/6/6 4/4/4 3/3/3
f 4/4/4 7/7/7 5/5/5
f 6/6/6 8/8/8 4/4/4
f 8/8/8 7/7/7 4/4/4
f 8/8/8 9/9/9 7/7/7
f 12/12/12 11/11/11 10/10/10
f 11/11/11 13/13/13 10/10/10
f 10/10/10 13/13/13 14/14/14
f 11/11/11 15/15/15 13/13/13
f 13/13/13 16/16/16 14/14/14
f 15/15/15 17/17/17 13/13/13
f 13/13/13 17/17/17 16/16/16
f 17/17/17 18/18/18 16/16/16
f 21/21/21 20/20/20 19/19/19
f 20/20/20 22/22/22 19/19/19
f 19/19/19 22/22/22 23/23/23
f 20/20/20 24/24/24 22/22/22
f 22/22/22 25/25/25 23/23/23
f 24/24/24 26/26/26 22/22/22
f 22/22/22 26/26/26 25/25/25
f 26/26/26 27/27/27 25/25/25
f 30/30/30 29/29/29 28/28/28
f 29/29/29 31/31/31 28/28/28
f 28/28/28 31/31/31 32/32/32
f 29/29/29 33/33/33 31/31/31
f 31/31/31 34/34/34 32/32/32
f 33/33/33 35/35/35 31/31/31
f 31/31/31 35/35/35 34/34/34
f 35/35/35 36/36/36 34/34/34
f 39/39/39 38/38/38 37/37/37
f 38/38/38 40/40/40 37/37/37
f 37/37/37 40/40/40 41/41/41
f 38/38/38 42/42/42 40/40/40
f 40/40/40 43/43/43 41/41/41
f 42/42/42 44/44/44 40/40/40
f 40/40/40 44/44/44 43/43/43
f 44/44/44 45/45/45 43/43/43
f 48/48/48 47/47/47 46/46/46
f 47/47/47 49/49/49 46/46/46
f 46/46/46 49/49/49 50/50/50
f 47/47/47 51/51/51 49/49/49
f 49/49/49 52/52/52 50/50/50
f 51/51/51 53/53/53 49/49/49
f 49/49/49 53/53/53 52/52/52
f 53/53/53 54/54/54 52/52/52
